<svg width="24" height="21" viewBox="0 0 24 21"  xmlns="http://www.w3.org/2000/svg">
<path d="M23.7209 6.73937C23.4433 6.07978 22.9823 5.60422 22.3872 5.36468L22.3792 5.36168C22.1083 5.25559 21.82 5.20131 21.5291 5.20166H21.4971C20.1349 5.22216 18.7442 6.37982 18.0371 8.08256C17.5185 9.32773 17.459 10.6669 17.8781 11.6651C18.1551 12.3251 18.6172 12.8007 19.2148 13.0402L19.2213 13.0427C19.4921 13.1488 19.7805 13.203 20.0714 13.2028C21.4466 13.2028 22.8518 12.0451 23.5719 10.3199C24.0839 9.0762 24.1404 7.73801 23.7209 6.73937Z" />
<path d="M18.2782 14.0835C17.4926 13.6114 16.75 13.1648 16.2649 12.3627C14.9267 10.1424 14.1186 8.80225 11.9998 8.80225C9.88103 8.80225 9.07092 10.1424 7.72973 12.3627C7.24367 13.1658 6.49956 13.6129 5.71145 14.087C4.80783 14.6301 3.8742 15.1911 3.47114 16.2953C3.31446 16.6933 3.23552 17.1177 3.23861 17.5455C3.23861 19.3432 4.63881 20.8059 6.35904 20.8059C7.24667 20.8059 8.1913 20.4984 9.19093 20.1728C10.1521 19.8598 11.1457 19.5362 12.0048 19.5362C12.8639 19.5362 13.8551 19.8598 14.8127 20.1728C15.8103 20.4964 16.7505 20.8039 17.6406 20.8039C19.3583 20.8039 20.756 19.3412 20.756 17.5435C20.7574 17.1154 20.6768 16.691 20.5185 16.2933C20.1154 15.1881 19.1813 14.6265 18.2782 14.0835Z" />
<path d="M6.69909 7.04445C7.29417 7.79105 8.04928 8.20211 8.82539 8.20211C8.93134 8.2021 9.03714 8.19425 9.14193 8.17861C10.7607 7.94057 11.7693 5.9653 11.4382 3.67798C11.2997 2.71635 10.9297 1.82073 10.3996 1.15664C9.80552 0.411533 9.04942 0.000976562 8.27381 0.000976562C8.16786 0.000979958 8.06205 0.00883595 7.95726 0.0244799C6.33854 0.262513 5.3299 2.23779 5.66095 4.5251C5.79897 5.48523 6.16902 6.37986 6.69909 7.04445Z" />
<path d="M14.8581 8.17863C14.9629 8.19427 15.0687 8.20213 15.1747 8.20213C15.9513 8.20213 16.7059 7.79108 17.301 7.04447C17.8306 6.37988 18.1986 5.48526 18.3386 4.52413C18.6697 2.23781 17.661 0.262536 16.0423 0.0235033C15.9375 0.00785939 15.8317 3.39596e-06 15.7258 0C14.9502 0.00100014 14.1941 0.411557 13.6 1.15666C13.0699 1.82075 12.6998 2.71638 12.5618 3.67901C12.2308 5.96532 13.2394 7.9406 14.8581 8.17863Z" />
<path d="M4.77829 13.0427L4.78529 13.0402C5.38187 12.8007 5.84343 12.3256 6.11997 11.6661C6.53903 10.6659 6.48002 9.32823 5.96245 8.08306C5.24585 6.35982 3.84116 5.20166 2.46747 5.20166C2.17657 5.20124 1.88819 5.25553 1.61735 5.36168L1.61035 5.36419C1.01527 5.60172 0.553702 6.07878 0.277164 6.73837C-0.141894 7.73851 -0.0828855 9.0762 0.434686 10.3214C1.15128 12.0446 2.55598 13.2028 3.92967 13.2028C4.22006 13.203 4.50792 13.1487 4.77829 13.0427Z" />
</svg>
