<svg width="24" height="24" viewBox="0 0 24 24" xmlns="http://www.w3.org/2000/svg">
<g clip-path="url(#clip0_1_23)">
  <path d="M5.23975 12.9808V21.2C5.23975 21.6899 5.63567 22.0856 6.12538 22.0856C6.61426 22.0856 7.01102 21.6899 7.01102 21.2V12.9808C7.01102 12.4917 6.61426 12.0952 6.12538 12.0952C5.63567 12.0952 5.23975 12.4913 5.23975 12.9808Z"/>
  <path d="M2.45991 22.0956H4.40999V12.3373C4.41533 12.2906 4.42385 12.2439 4.42385 12.1959C4.42385 7.98597 7.82193 4.56133 11.9982 4.56133C16.1739 4.56133 19.572 7.98597 19.572 12.1959C19.572 12.2603 19.5814 12.3227 19.591 12.3849V22.0956H21.5413C22.8987 22.0956 24.0001 20.9565 24.0001 19.5511V14.4623C24.0001 13.3033 23.2494 12.3269 22.2245 12.0197C22.1303 6.42681 17.5806 1.90442 11.9986 1.90442C6.41501 1.90442 1.86473 6.42723 1.77136 12.0218C0.747928 12.3295 0 13.3051 0 14.4631V19.5511C0 20.9557 1.10126 22.0956 2.45991 22.0956Z"/>
  <path d="M16.9907 12.9808V21.2C16.9907 21.6899 17.3872 22.0856 17.8763 22.0856C18.3653 22.0856 18.7618 21.6899 18.7618 21.2V12.9808C18.7618 12.4917 18.3653 12.0952 17.8763 12.0952C17.3863 12.0952 16.9907 12.4913 16.9907 12.9808Z"/>
</g>
<defs>
  <clipPath id="clip0_1_23">
    <rect width="24" height="24" fill="white"/>
  </clipPath>
</defs>
</svg>
