<svg viewBox="0 0 30 24" xmlns="http://www.w3.org/2000/svg">
<path d="M22.878 8.99975H15.7524V11.625C15.7524 13.4861 14.2382 15.0003 12.3771 15.0003C10.516 15.0003 9.00183 13.4861 9.00183 11.625V5.92449L5.95938 7.75277C5.05462 8.29187 4.50145 9.27164 4.50145 10.3217V12.5391L0.751133 14.7049C0.0338845 15.1175 -0.214574 16.0363 0.202649 16.7535L3.95297 23.2509C4.3655 23.9682 5.28433 24.212 6.00158 23.7994L10.8489 21.0008H17.2525C18.9074 21.0008 20.2528 19.6553 20.2528 18.0005H21.0028C21.8326 18.0005 22.503 17.3301 22.503 16.5004V13.5001H22.878C23.5015 13.5001 24.0031 12.9985 24.0031 12.375V10.1248C24.0031 9.50135 23.5015 8.99975 22.878 8.99975ZM29.802 7.24647L26.0517 0.749049C25.6392 0.0318012 24.7203 -0.211969 24.0031 0.200565L19.1558 2.99924H14.3648C13.8022 2.99924 13.2538 3.15863 12.7756 3.45397L11.2051 4.43374C10.7645 4.70563 10.502 5.18849 10.502 5.70416V11.625C10.502 12.661 11.3411 13.5001 12.3771 13.5001C13.4131 13.5001 14.2523 12.661 14.2523 11.625V7.49962H22.878C24.3266 7.49962 25.5032 8.67628 25.5032 10.1248V11.4609L29.2535 9.29508C29.9708 8.87786 30.2146 7.96372 29.802 7.24647Z"/>
</svg>
